<svg width="25" height="30" viewBox="0 0 25 30" fill="none" xmlns="http://www.w3.org/2000/svg">
<path d="M24.6337 24.5257L17.9962 16.9551H16.7564L13.5754 20.5833V21.9974L20.2129 29.5679C20.7013 30.125 21.4903 30.125 21.9787 29.5679L24.6337 26.5397C24.7498 26.4076 24.8419 26.2506 24.9047 26.0778C24.9676 25.905 24.9999 25.7198 24.9999 25.5327C24.9999 25.3456 24.9676 25.1604 24.9047 24.9876C24.8419 24.8148 24.7498 24.6578 24.6337 24.5257Z" fill="url(#paint0_linear_44_30)"/>
<path d="M19.211 13.127L20.9769 11.113L23.6318 14.1412C24.3354 13.3377 24.7306 12.2485 24.7306 11.113C24.7306 9.97738 24.3354 8.88823 23.6318 8.08475L19.1985 3.02821L17.4327 5.04226V1.01417L16.5561 0L12.1227 5.05654L13.0119 6.07071H16.5561L14.7902 8.08475L16.1177 9.59886L12.4984 13.7269L7.32624 7.82764V5.79931L3.54415 1.48554L0 5.52791L3.79462 9.85597H5.56043L10.7326 15.7553L9.66814 16.9694H7.01316L0.375705 24.5399C0.259607 24.6721 0.1675 24.8291 0.104656 25.0018C0.0418108 25.1746 0.0094627 25.3599 0.0094627 25.547C0.0094627 25.734 0.0418108 25.9193 0.104656 26.0921C0.1675 26.2649 0.259607 26.4218 0.375705 26.554L3.03069 29.5822C3.5191 30.1393 4.30808 30.1393 4.7965 29.5822L11.4339 22.0117V18.9835L17.8835 11.6272L19.211 13.127Z" fill="url(#paint1_linear_44_30)"/>
<defs>
<linearGradient id="paint0_linear_44_30" x1="13.5754" y1="23.4704" x2="24.9999" y2="23.4704" gradientUnits="userSpaceOnUse">
<stop stop-color="#296A76"/>
<stop offset="1" stop-color="#4DC6DC"/>
</linearGradient>
<linearGradient id="paint1_linear_44_30" x1="0" y1="15" x2="24.7306" y2="15" gradientUnits="userSpaceOnUse">
<stop stop-color="#296A76"/>
<stop offset="1" stop-color="#4DC6DC"/>
</linearGradient>
</defs>
</svg>
